# xmcd
#
# Track frame offsets: 
#        150
#        20565
#        39858
#        67751
#        92371
#        110793
#        129921
#        167672
#
# Disc length: 2418 seconds
#
# Revision: 0
# Processed by: cddbd v1.5.2PL0 Copyright (c) Steve Scherf et al.
# Submitted via: ExactAudioCopy v0.99pb5
#
DISCID=57097008
DTITLE=The Ori Naftaly Band - Happy For Good
DYEAR=2013
DGENRE=Blues
TTITLE0=Set Me Free
TTITLE1=Envy
TTITLE2=Taxi Driver
TTITLE3=Dreamin', Pleadin', Wondrin'
TTITLE4=Happy For Good
TTITLE5=I Feel Fine
TTITLE6=Like A Snake
TTITLE7=Cheaper Just To Keep Her Satisfied
EXTD=
EXTT0=
EXTT1=
EXTT2=
EXTT3=
EXTT4=
EXTT5=
EXTT6=
EXTT7=
PLAYORDER=
